<mxfile host="app.diagrams.net" modified="2023-08-22T02:31:28.478Z" agent="Mozilla/5.0 (Windows NT 10.0; Win64; x64) AppleWebKit/537.36 (KHTML, like Gecko) Chrome/115.0.0.0 Safari/537.36 OPR/101.0.0.0" version="21.6.8" etag="jSsYS_8WU2hUjfWxX3iK" type="github">
  <diagram name="PÃ¡gina-1" id="Vm1lQfNVl6-Vv601qYH_">
    <mxGraphModel>
      <root>
        <mxCell id="0" />
        <mxCell id="1" parent="0" />
      </root>
    </mxGraphModel>
  </diagram>
</mxfile>
